<svg width="56" height="42" viewBox="0 0 56 42" fill="none" xmlns="http://www.w3.org/2000/svg">
<g clip-path="url(#clip0_18_38)">
<path d="M55.1367 3.88894C54.0587 2.03628 52.0753 0.777832 49.7778 0.777832H28V3.88894H55.1367ZM0 31.8889H56V35.0001H0V31.8889ZM28 19.4445H56V22.5556H28V19.4445ZM28 13.2223H56V16.3334H28V13.2223ZM0 25.6667H56V28.7778H0V25.6667ZM6.22222 41.2223H49.7778C52.0753 41.2223 54.0587 39.9638 55.1367 38.1112H0.863333C1.94133 39.9638 3.92467 41.2223 6.22222 41.2223ZM28 7.00005H56V10.1112H28V7.00005Z" fill="#B22334"/>
<path d="M0.105778 36.0562C0.131704 36.2014 0.162296 36.3451 0.197556 36.4871C0.239037 36.6427 0.286741 36.7962 0.340667 36.9476C0.479111 37.3505 0.647111 37.7394 0.858667 38.1034L0.863333 38.1111H55.1367L55.1398 38.1049C55.3506 37.7392 55.5236 37.353 55.6562 36.9522C55.7572 36.6599 55.8362 36.3604 55.8927 36.0562C55.9564 35.714 56 35.3625 56 35H0C0 35.3625 0.0435556 35.7125 0.105778 36.0562ZM0 28.7778H56V31.8889H0V28.7778ZM0 22.5556V25.6667H56V22.5556H28H0ZM28 16.3334H56V19.4445H28V16.3334ZM28 10.1111H56V13.2222H28V10.1111ZM0.199111 5.51292C0.238 5.35425 0.292444 5.20336 0.342222 5.05092C0.288549 5.203 0.240809 5.35712 0.199111 5.51292ZM28 7.00003H56C56 6.63758 55.9564 6.28603 55.8927 5.94225C55.8382 5.63752 55.7586 5.33782 55.6547 5.04625C55.5219 4.64384 55.3483 4.25605 55.1367 3.88892H28V7.00003Z" fill="#EEEEEE"/>
<path d="M28 0.777832H6.22222C4.57199 0.777832 2.98934 1.43339 1.82245 2.60028C0.655554 3.76717 0 5.34982 0 7.00005L0 22.5556H28V0.777832Z" fill="#3C3B6E"/>
<path d="M3.11426 5.01825L4.07559 5.71669L3.70848 6.84447L4.66826 6.14758L5.62959 6.84447L5.26248 5.71669L6.22381 5.01825H5.03537L4.66826 3.88892L4.3027 5.01825H3.11426ZM6.22537 8.12936L7.1867 8.82781L6.81959 9.95558L7.77937 9.25869L8.7407 9.95558L8.37359 8.82781L9.33492 8.12936H8.14648L7.77937 7.00003L7.41381 8.12936H6.22537ZM12.4476 8.12936L13.4089 8.82781L13.0418 9.95558L14.0016 9.25869L14.9629 9.95558L14.5958 8.82781L15.5571 8.12936H14.3687L14.0016 7.00003L13.636 8.12936H12.4476ZM18.6698 8.12936L19.6311 8.82781L19.264 9.95558L20.2238 9.25869L21.1851 9.95558L20.818 8.82781L21.7794 8.12936H20.5909L20.2238 7.00003L19.8583 8.12936H18.6698ZM6.22537 14.3516L7.1867 15.05L6.81959 16.1778L7.77937 15.4809L8.7407 16.1778L8.37359 15.05L9.33492 14.3516H8.14648L7.77937 13.2222L7.41381 14.3516H6.22537ZM12.4476 14.3516L13.4089 15.05L13.0418 16.1778L14.0016 15.4809L14.9629 16.1778L14.5958 15.05L15.5571 14.3516H14.3687L14.0016 13.2222L13.636 14.3516H12.4476ZM18.6698 14.3516L19.6311 15.05L19.264 16.1778L20.2238 15.4809L21.1851 16.1778L20.818 15.05L21.7794 14.3516H20.5909L20.2238 13.2222L19.8583 14.3516H18.6698ZM9.33648 5.01825L10.2978 5.71669L9.9307 6.84447L10.8905 6.14758L11.8518 6.84447L11.4847 5.71669L12.446 5.01825H11.2576L10.8905 3.88892L10.5249 5.01825H9.33648ZM15.5587 5.01825L16.52 5.71669L16.1529 6.84447L17.1127 6.14758L18.074 6.84447L17.7069 5.71669L18.6683 5.01825H17.4798L17.1127 3.88892L16.7471 5.01825H15.5587ZM21.7809 5.01825L22.7423 5.71669L22.3751 6.84447L23.3349 6.14758L24.2963 6.84447L23.9291 5.71669L24.8905 5.01825H23.702L23.3349 3.88892L22.9694 5.01825H21.7809ZM3.11426 11.2405L4.07559 11.9389L3.70848 13.0667L4.66826 12.3698L5.62959 13.0667L5.26248 11.9389L6.22381 11.2405H5.03537L4.66826 10.1111L4.3027 11.2405H3.11426ZM9.9307 13.0667L10.8905 12.3698L11.8518 13.0667L11.4847 11.9389L12.446 11.2405H11.2576L10.8905 10.1111L10.5249 11.2405H9.33648L10.2978 11.9389L9.9307 13.0667ZM15.5587 11.2405L16.52 11.9389L16.1529 13.0667L17.1127 12.3698L18.074 13.0667L17.7069 11.9389L18.6683 11.2405H17.4798L17.1127 10.1111L16.7471 11.2405H15.5587ZM21.7809 11.2405L22.7423 11.9389L22.3751 13.0667L23.3349 12.3698L24.2963 13.0667L23.9291 11.9389L24.8905 11.2405H23.702L23.3349 10.1111L22.9694 11.2405H21.7809ZM3.11426 17.4627L4.07559 18.1611L3.70848 19.2889L4.66826 18.592L5.62959 19.2889L5.26248 18.1611L6.22381 17.4627H5.03537L4.66826 16.3334L4.3027 17.4627H3.11426ZM9.9307 19.2889L10.8905 18.592L11.8518 19.2889L11.4847 18.1611L12.446 17.4627H11.2576L10.8905 16.3334L10.5249 17.4627H9.33648L10.2978 18.1611L9.9307 19.2889ZM15.5587 17.4627L16.52 18.1611L16.1529 19.2889L17.1127 18.592L18.074 19.2889L17.7069 18.1611L18.6683 17.4627H17.4798L17.1127 16.3334L16.7471 17.4627H15.5587ZM21.7809 17.4627L22.7423 18.1611L22.3751 19.2889L23.3349 18.592L24.2963 19.2889L23.9291 18.1611L24.8905 17.4627H23.702L23.3349 16.3334L22.9694 17.4627H21.7809Z" fill="white"/>
</g>
<defs>
<clipPath id="clip0_18_38">
<rect width="56" height="42" fill="white"/>
</clipPath>
</defs>
</svg>
