<svg width="40" height="29" viewBox="0 0 40 29" fill="none" xmlns="http://www.w3.org/2000/svg">
<g clip-path="url(#clip0_35_106)">
<path d="M4.44444 0C3.2657 0 2.13524 0.468252 1.30175 1.30175C0.468253 2.13524 0 3.2657 0 4.44444L0 24.4444C0 25.6232 0.468253 26.7536 1.30175 27.5871C2.13524 28.4206 3.2657 28.8889 4.44444 28.8889H13.3333V0H4.44444Z" fill="#002664"/>
<path d="M13.3334 0H26.6667V28.8889H13.3334V0Z" fill="#FECB00"/>
<path d="M35.5555 0H26.6666V28.8889H35.5555C36.7343 28.8889 37.8647 28.4206 38.6982 27.5871C39.5317 26.7536 40 25.6232 40 24.4444V4.44444C40 3.2657 39.5317 2.13524 38.6982 1.30175C37.8647 0.468252 36.7343 0 35.5555 0Z" fill="#C60C30"/>
</g>
<defs>
<clipPath id="clip0_35_106">
<rect width="40" height="28.8889" fill="white"/>
</clipPath>
</defs>
</svg>
